<?xml version="1.0" encoding="UTF-8" standalone="no"?>
<!DOCTYPE svg PUBLIC "-//W3C//DTD SVG 1.1//EN"
 "http://www.w3.org/Graphics/SVG/1.1/DTD/svg11.dtd">
<!-- Generated by graphviz version 2.26.3 (20100126.1600)
 -->
<!-- Title: G Pages: 1 -->
<svg width="608pt" height="448pt"
 viewBox="0.00 0.00 608.00 448.00" xmlns="http://www.w3.org/2000/svg" xmlns:xlink="http://www.w3.org/1999/xlink">
<g id="graph1" class="graph" transform="scale(1 1) rotate(0) translate(4 444)">
<title>G</title>
<polygon fill="white" stroke="white" points="-4,5 -4,-444 605,-444 605,5 -4,5"/>
<g id="graph2" class="cluster"><title>cluster_0</title>
<polygon fill="lightgrey" stroke="lightgrey" points="8,-124 8,-344 592,-344 592,-124 8,-124"/>
<text text-anchor="middle" x="300" y="-327.4" font-family="Times Roman,serif" font-size="14.00">Operator core network</text>
</g>
<g id="graph3" class="cluster"><title>cluster_1</title>
<polygon fill="none" stroke="blue" points="10,-8 10,-88 352,-88 352,-8 10,-8"/>
<text text-anchor="middle" x="181" y="-71.4" font-family="Times Roman,serif" font-size="14.00">Wireless network</text>
</g>
<!-- web -->
<g id="node1" class="node"><title>web</title>
<polygon fill="none" stroke="black" points="300,-440 193,-414 300,-388 407,-414 300,-440"/>
<polyline fill="none" stroke="black" points="204.661,-416.833 204.661,-411.167 "/>
<polyline fill="none" stroke="black" points="288.339,-390.833 311.661,-390.833 "/>
<polyline fill="none" stroke="black" points="395.339,-411.167 395.339,-416.833 "/>
<polyline fill="none" stroke="black" points="311.661,-437.167 288.339,-437.167 "/>
<text text-anchor="middle" x="300" y="-410.4" font-family="Times Roman,serif" font-size="14.00">Asset service</text>
</g>
<!-- squid -->
<g id="node3" class="node"><title>squid</title>
<ellipse fill="white" stroke="white" cx="300" cy="-279" rx="283.757" ry="31.1127"/>
<image xlink:href="ajith_stacked_servers.svg" width="400px" height="0px" preserveAspectRatio="xMinYMin meet" x="100" y="-279"/>
<ellipse fill="none" stroke="white" cx="300" cy="-279" rx="283.757" ry="31.1127"/>
<text text-anchor="middle" x="300" y="-284.4" font-family="Times Roman,serif" font-size="14.00">Caching proxy</text>
<text text-anchor="middle" x="300" y="-266.4" font-family="Times Roman,serif" font-size="14.00">(Squid)</text>
</g>
<!-- web&#45;&gt;squid -->
<g id="edge9" class="edge"><title>web&#45;&gt;squid</title>
<path fill="none" stroke="black" d="M300,-387.971C300,-368.789 300,-342.312 300,-320.26"/>
<polygon fill="black" stroke="black" points="303.5,-320.162 300,-310.162 296.5,-320.162 303.5,-320.162"/>
<text text-anchor="middle" x="345" y="-357.4" font-family="Times Roman,serif" font-size="14.00">1. HTTP resp</text>
</g>
<!-- wlanap -->
<g id="node5" class="node"><title>wlanap</title>
<ellipse fill="white" stroke="white" cx="134" cy="-163" rx="118.087" ry="31.1127"/>
<ellipse fill="none" stroke="white" cx="134" cy="-163" rx="118.087" ry="31.1127"/>
<text text-anchor="middle" x="134" y="-168.4" font-family="Times Roman,serif" font-size="14.00">Wireless basestation</text>
<text text-anchor="middle" x="134" y="-150.4" font-family="Times Roman,serif" font-size="14.00">(throttled bandwidth)</text>
</g>
<!-- squid&#45;&gt;wlanap -->
<g id="edge3" class="edge"><title>squid&#45;&gt;wlanap</title>
<path fill="none" stroke="black" d="M235.193,-248.688C224.802,-242.954 214.389,-236.651 205,-230 192.752,-221.324 180.481,-210.632 169.669,-200.358"/>
<polygon fill="black" stroke="black" points="172.05,-197.791 162.435,-193.341 167.176,-202.816 172.05,-197.791"/>
<text text-anchor="middle" x="250" y="-217.4" font-family="Times Roman,serif" font-size="14.00">4. HTTP resp</text>
</g>
<!-- progproxy -->
<g id="node6" class="node"><title>progproxy</title>
<ellipse fill="white" stroke="white" cx="411" cy="-163" rx="140.922" ry="31.1127"/>
<ellipse fill="none" stroke="white" cx="411" cy="-163" rx="140.922" ry="31.1127"/>
<text text-anchor="middle" x="411" y="-168.4" font-family="Times Roman,serif" font-size="14.00">Chiru programmable proxy</text>
<text text-anchor="middle" x="411" y="-150.4" font-family="Times Roman,serif" font-size="14.00">(ICAP server)</text>
</g>
<!-- squid&#45;&gt;progproxy -->
<g id="edge5" class="edge"><title>squid&#45;&gt;progproxy</title>
<path fill="none" stroke="black" d="M296.992,-247.7C297.345,-235.583 299.757,-222.204 307,-212 311.671,-205.42 317.46,-199.696 323.899,-194.722"/>
<polygon fill="black" stroke="black" points="326.167,-197.407 332.365,-188.815 322.161,-191.666 326.167,-197.407"/>
<text text-anchor="middle" x="346.5" y="-217.4" font-family="Times Roman,serif" font-size="14.00">2. ICAP req</text>
</g>
<!-- mobile1 -->
<g id="node11" class="node"><title>mobile1</title>
<ellipse fill="lightgrey" stroke="black" cx="95" cy="-35" rx="77.0746" ry="18.3848"/>
<ellipse fill="none" stroke="black" cx="95" cy="-35" rx="77.0746" ry="18.3848"/>
<text text-anchor="middle" x="95" y="-31.4" font-family="Times Roman,serif" font-size="14.00">Mobile device</text>
</g>
<!-- wlanap&#45;&gt;mobile1 -->
<g id="edge12" class="edge"><title>wlanap&#45;&gt;mobile1</title>
<path fill="none" stroke="black" d="M124.559,-132.015C118.195,-111.128 109.863,-83.7797 103.667,-63.4458"/>
<polygon fill="black" stroke="black" points="106.992,-62.3509 100.73,-53.8052 100.296,-64.3911 106.992,-62.3509"/>
<text text-anchor="middle" x="163" y="-101.4" font-family="Times Roman,serif" font-size="14.00">5. HTTP resp</text>
</g>
<!-- mobile2 -->
<g id="node12" class="node"><title>mobile2</title>
<ellipse fill="lightgrey" stroke="black" cx="267" cy="-35" rx="77.0746" ry="18.3848"/>
<ellipse fill="none" stroke="black" cx="267" cy="-35" rx="77.0746" ry="18.3848"/>
<text text-anchor="middle" x="267" y="-31.4" font-family="Times Roman,serif" font-size="14.00">Mobile device</text>
</g>
<!-- wlanap&#45;&gt;mobile2 -->
<g id="edge14" class="edge"><title>wlanap&#45;&gt;mobile2</title>
<path fill="none" stroke="black" d="M185.273,-134.952C194.668,-128.686 204.015,-121.616 212,-114 227.77,-98.9583 241.745,-78.7416 251.662,-62.5252"/>
<polygon fill="black" stroke="black" points="254.92,-63.8945 257.015,-53.5089 248.901,-60.3209 254.92,-63.8945"/>
<text text-anchor="middle" x="247" y="-101.4" font-family="Times Roman,serif" font-size="14.00">HTTP</text>
</g>
<!-- progproxy&#45;&gt;squid -->
<g id="edge7" class="edge"><title>progproxy&#45;&gt;squid</title>
<path fill="none" stroke="black" d="M404.307,-194.048C400.497,-206.268 394.689,-219.788 386,-230 382.219,-234.444 377.928,-238.57 373.329,-242.386"/>
<polygon fill="black" stroke="black" points="371.141,-239.654 365.334,-248.516 375.4,-245.209 371.141,-239.654"/>
<text text-anchor="middle" x="438.5" y="-217.4" font-family="Times Roman,serif" font-size="14.00">3. ICAP resp</text>
</g>
</g>
</svg>
